<?xml version="1.0" standalone="no"?>
<svg xmlns="http://www.w3.org/2000/svg" viewBox="0 0 126 70" width="126" height="70"><g fill="#BF0909" color="#BF0909" transform="translate(40.637 0) scale(0.7333334) "><svg width="60.0" height="60.0" x="0.0" y="0.0" viewBox="0 0 60 60"><path d="M50.001,47.72l-5.208-5.207l3.391-3.392l-1.514-1.514l-1.575,1.575L24.383,18.469l-2.589,2.589l-4.179-4.179l-0.772,0.772  L4.942,5.75L4.215,6.477l11.901,11.901l-0.772,0.772l4.179,4.179l-2.589,2.589l20.712,20.713l-1.575,1.574l1.515,1.515l3.391-3.392  l5.208,5.208l-2.179,2.18l1.514,1.514l2.18-2.18l3.815-3.816l2.18-2.18l-1.514-1.515L50.001,47.72z M43.278,40.998l-3.816,3.816  l-1.09,1.09l-3.113-3.113l2.998-2.998l-0.814-0.814l-2.997,2.998l-2.423-2.422l1.317-1.317l-0.814-0.814l-1.317,1.317l-2.423-2.422  l2.998-2.998l-0.814-0.814l-2.998,2.998l-2.422-2.422l1.317-1.317l-0.814-0.814l-1.317,1.316l-2.422-2.422l2.998-2.998l-0.814-0.814  L21.5,29.031l-3.113-3.114l5.996-5.995l19.985,19.985L43.278,40.998z"></path><path d="M55.118,4.938l-16.08,9.042c-0.627,0.353-1.102,1.23-1.055,1.948l0.257,3.906c0.047,0.718-0.503,1.327-1.223,1.352  l-5.653,0.572c-0.715,0.082-0.884,0.566-0.375,1.075l6.732,6.732c0.509,0.509,0.993,0.34,1.075-0.375l0.568-5.653  c0.024-0.72,0.632-1.27,1.351-1.223l3.911,0.256c0.718,0.047,1.595-0.428,1.948-1.055l9.042-16.079  C55.971,4.81,55.746,4.585,55.118,4.938z"></path><path d="M20.939,32.526c-0.509-0.509-1.342-0.509-1.851,0L7.929,43.686c-0.509,0.509-1.136,1.476-1.392,2.148l0,1.256  c0.256,0.673,0.883,1.64,1.392,2.149l3.388,3.388c0.509,0.509,1.476,1.136,2.148,1.392h1.256c0.672-0.256,1.639-0.882,2.148-1.392  l11.16-11.16c0.51-0.509,0.51-1.341,0-1.851L20.939,32.526z"></path></svg></g><path fill="#000000" fill-rule="nonzero" d="M3.11 7.58L3.11 17.53Q2.54 17.46 0.94 17.46L0.94 17.46L0 17.46L0 1.83Q0.75 1.88 1.65 1.88Q2.55 1.88 2.93 1.78L2.93 1.78L6.87 8.47L10.65 1.78Q11.03 1.88 12.08 1.88Q13.14 1.88 13.89 1.83L13.89 1.83L13.89 17.46L12.95 17.46Q11.34 17.46 10.78 17.53L10.78 17.53L10.78 7.03L6.95 13.89L3.11 7.58ZM17.10 11.44L17.10 11.44Q17.10 10.07 17.57 8.89Q18.04 7.72 18.89 6.84L18.89 6.84Q20.72 4.98 23.67 4.98L23.67 4.98Q26.17 4.98 27.68 6.63L27.68 6.63Q29.17 8.23 29.17 10.64L29.17 10.64Q29.17 11.57 29.03 11.91L29.03 11.91Q27.86 12.23 24.26 12.23L24.26 12.23L20.13 12.23Q20.44 13.49 21.55 14.19Q22.66 14.88 24.45 14.88L24.45 14.88Q26.31 14.88 27.64 14.21L27.64 14.21Q28.00 14.04 28.17 13.89L28.17 13.89Q28.15 14.38 28.11 14.89L28.11 14.89L27.98 16.72Q27.09 17.33 25.10 17.57L25.10 17.57Q24.52 17.64 23.98 17.64L23.98 17.64Q21 17.64 19.05 15.90L19.05 15.90Q17.10 14.16 17.10 11.44ZM26.05 9.96L26.05 9.96Q25.57 7.44 23.31 7.44L23.31 7.44Q21.53 7.44 20.60 8.98L20.60 8.98Q20.32 9.45 20.17 10.01L20.17 10.01Q20.45 10.02 20.86 10.03L20.86 10.03L21.73 10.03Q22.16 10.04 22.56 10.04L22.56 10.04L23.23 10.04Q23.82 10.04 24.40 10.03L24.40 10.03L25.36 10.00Q25.75 9.98 26.05 9.96ZM37.15 14.88L37.15 14.88Q38.66 14.88 39.22 14.10L39.22 14.10L39.32 14.10L39.35 16.82Q38.78 17.39 37.22 17.58L37.22 17.58Q36.80 17.64 36.17 17.64Q35.54 17.64 34.81 17.40Q34.08 17.17 33.56 16.64L33.56 16.64Q32.50 15.55 32.50 13.23L32.50 13.23L32.50 7.91L30.73 7.91Q30.71 7.57 30.71 7.22L30.71 7.22L30.71 5.41Q30.71 5.21 30.73 5.21L30.73 5.21L32.50 5.21L32.50 1.88L35.37 1.88L35.37 5.21L38.59 5.21L38.59 7.91L35.37 7.91L35.37 12.69Q35.37 14.53 36.39 14.79L36.39 14.79Q36.71 14.88 37.15 14.88ZM47.17 14.88L47.17 14.88Q48.68 14.88 49.24 14.10L49.24 14.10L49.34 14.10L49.37 16.82Q48.80 17.39 47.24 17.58L47.24 17.58Q46.82 17.64 46.19 17.64Q45.56 17.64 44.83 17.40Q44.10 17.17 43.58 16.64L43.58 16.64Q42.52 15.55 42.52 13.23L42.52 13.23L42.52 7.91L40.75 7.91Q40.73 7.57 40.73 7.22L40.73 7.22L40.73 5.41Q40.73 5.21 40.75 5.21L40.75 5.21L42.52 5.21L42.52 1.88L45.39 1.88L45.39 5.21L48.61 5.21L48.61 7.91L45.39 7.91L45.39 12.69Q45.39 14.53 46.41 14.79L46.41 14.79Q46.73 14.88 47.17 14.88ZM59.84 16.73L59.84 16.73Q58.17 17.64 56.82 17.64Q55.48 17.64 54.52 17.38Q53.55 17.13 52.89 16.64L52.89 16.64Q51.53 15.64 51.53 13.76L51.53 13.76Q51.53 12.07 53.19 10.95L53.19 10.95Q55.00 9.73 58.09 9.73L58.09 9.73L58.56 9.74Q58.70 9.75 58.88 9.76Q59.05 9.76 59.19 9.79L59.19 9.79Q59.10 7.91 57.57 7.59L57.57 7.59Q57.07 7.49 56.50 7.49Q55.93 7.49 55.39 7.59Q54.84 7.69 54.33 7.85L54.33 7.85Q53.19 8.21 52.70 8.68L52.70 8.68L52.66 8.66L52.31 6.07Q54.39 4.98 56.85 4.98L56.85 4.98Q60.67 4.98 61.73 7.73L61.73 7.73Q62.07 8.61 62.07 9.71L62.07 9.71L62.07 13.96Q62.07 15.32 63.04 15.81L63.04 15.81L60.91 17.75Q60.25 17.40 59.84 16.73ZM59.20 14.34L59.20 11.89Q58.89 11.84 58.55 11.84L58.55 11.84L58.08 11.84Q55.49 11.84 54.79 12.98L54.79 12.98Q54.57 13.32 54.57 13.70Q54.57 14.07 54.71 14.36Q54.84 14.65 55.16 14.84L55.16 14.84Q55.77 15.19 56.97 15.19Q58.17 15.19 59.21 14.61L59.21 14.61Q59.20 14.48 59.20 14.34L59.20 14.34ZM75.43 2.74L75.43 2.74L75.21 6.19L75.13 6.21Q74.26 4.91 72.18 4.52L72.18 4.52Q71.52 4.39 70.92 4.39Q70.31 4.39 69.88 4.50Q69.46 4.61 69.15 4.80L69.15 4.80Q68.51 5.23 68.51 5.91L68.51 5.91Q68.51 6.80 69.07 7.24L69.07 7.24Q69.77 7.78 71.40 8.00Q73.03 8.21 74.02 8.59Q75 8.96 75.63 9.54L75.63 9.54Q76.83 10.62 76.83 12.59L76.83 12.59Q76.83 15.16 74.88 16.56L74.88 16.56Q73.22 17.75 70.69 17.75L70.69 17.75Q68.65 17.75 66.66 16.98L66.66 16.98Q66 16.72 65.51 16.38L65.51 16.38L65.64 12.47L65.68 12.43Q67.14 14.94 70.45 14.94L70.45 14.94Q72.81 14.94 73.57 13.80L73.57 13.80Q73.83 13.42 73.83 12.94Q73.83 12.47 73.68 12.16Q73.52 11.85 73.17 11.63L73.17 11.63Q72.49 11.18 70.89 11.03Q69.28 10.88 68.26 10.45Q67.24 10.03 66.63 9.41L66.63 9.41Q65.53 8.29 65.53 6.27L65.53 6.27Q65.53 4.18 67.00 2.89L67.00 2.89Q68.48 1.58 71.01 1.58Q73.54 1.58 75.43 2.74ZM87.80 16.73L87.80 16.73Q86.13 17.64 84.79 17.64Q83.44 17.64 82.48 17.38Q81.52 17.13 80.85 16.64L80.85 16.64Q79.49 15.64 79.49 13.76L79.49 13.76Q79.49 12.07 81.15 10.95L81.15 10.95Q82.96 9.73 86.05 9.73L86.05 9.73L86.52 9.74Q86.66 9.75 86.84 9.76Q87.01 9.76 87.15 9.79L87.15 9.79Q87.06 7.91 85.54 7.59L85.54 7.59Q85.03 7.49 84.46 7.49Q83.89 7.49 83.35 7.59Q82.80 7.69 82.29 7.85L82.29 7.85Q81.15 8.21 80.66 8.68L80.66 8.68L80.63 8.66L80.27 6.07Q82.35 4.98 84.81 4.98L84.81 4.98Q88.63 4.98 89.70 7.73L89.70 7.73Q90.04 8.61 90.04 9.71L90.04 9.71L90.04 13.96Q90.04 15.32 91.00 15.81L91.00 15.81L88.88 17.75Q88.21 17.40 87.80 16.73ZM87.16 14.34L87.16 11.89Q86.85 11.84 86.51 11.84L86.51 11.84L86.04 11.84Q83.45 11.84 82.75 12.98L82.75 12.98Q82.54 13.32 82.54 13.70Q82.54 14.07 82.67 14.36Q82.80 14.65 83.12 14.84L83.12 14.84Q83.73 15.19 84.93 15.19Q86.13 15.19 87.18 14.61L87.18 14.61Q87.16 14.48 87.16 14.34L87.16 14.34ZM96.41 0L96.41 16.15Q96.41 17.16 96.46 17.46L96.46 17.46L93.48 17.46L93.48 0L96.41 0ZM107.04 17.46L107.04 16.39Q105.54 17.64 103.77 17.64L103.77 17.64Q101.87 17.64 100.79 16.36L100.79 16.36Q99.76 15.12 99.76 12.95L99.76 12.95L99.76 8.30Q99.76 5.95 99.66 5.61Q99.56 5.26 99.52 5.17L99.52 5.17Q100.05 5.21 100.64 5.21L100.64 5.21L101.61 5.21Q102 5.21 102.63 5.18L102.63 5.18L102.63 11.96Q102.63 14.38 103.95 14.77L103.95 14.77Q104.34 14.88 104.81 14.88L104.81 14.88Q106.20 14.88 107.04 13.88L107.04 13.88L107.04 5.21L109.95 5.21L109.95 15.96Q109.95 16.99 110.04 17.46L110.04 17.46L107.04 17.46ZM122.09 16.80L122.09 16.80Q120.60 17.64 119.11 17.64Q117.62 17.64 116.51 17.17Q115.39 16.70 114.61 15.88L114.61 15.88Q112.99 14.19 112.99 11.50L112.99 11.50Q112.99 8.71 114.87 6.86L114.87 6.86Q116.75 4.98 119.70 4.98L119.70 4.98Q120.60 4.98 121.46 5.21L121.46 5.21L121.46 0L124.34 0L124.34 12.53Q124.34 14.09 124.48 14.57Q124.63 15.05 124.81 15.27Q124.99 15.49 125.27 15.69L125.27 15.69L123.07 17.64Q122.46 17.31 122.09 16.80ZM119.66 14.94L119.66 14.94Q120.64 14.94 121.46 14.57L121.46 14.57L121.46 8.07Q120.64 7.73 119.68 7.73Q118.72 7.73 118.04 7.99Q117.35 8.25 116.86 8.71L116.86 8.71Q115.83 9.67 115.83 11.20L115.83 11.20Q115.83 12.88 116.77 13.88L116.77 13.88Q117.77 14.94 119.66 14.94Z" transform="translate(0, 52)"></path></svg>